<svg width="20" height="20" viewBox="0 0 20 20" fill="none" xmlns="http://www.w3.org/2000/svg">
<g clip-path="url(#clip0_2824_17383)">
<path d="M15.2367 13.7082H13.0482V11.2806C14.8441 10.2294 16.0531 8.27987 16.0531 6.05298C16.053 2.71534 13.3377 0 10 0C6.6624 0 3.94702 2.71534 3.94702 6.05302C3.94702 8.27991 5.15598 10.2295 6.95186 11.2806V13.7083H4.76343C4.52512 13.7083 4.31054 13.8525 4.22058 14.0732C4.13062 14.2939 4.18326 14.547 4.35364 14.7136L9.59026 19.833C9.70413 19.9444 9.85209 20 10 20C10.1479 20 10.2959 19.9444 10.4097 19.833L15.6464 14.7136C15.8167 14.547 15.8694 14.2939 15.7794 14.0732C15.6895 13.8525 15.4749 13.7082 15.2367 13.7082ZM5.1194 6.05302C5.1194 3.36179 7.30881 1.17238 10 1.17238C12.6913 1.17238 14.8807 3.36179 14.8807 6.05302C14.8807 8.74425 12.6913 10.9337 10 10.9337C7.30881 10.9337 5.1194 8.74421 5.1194 6.05302ZM10 18.5941L6.20158 14.8807H7.53805C7.86178 14.8807 8.12424 14.6182 8.12424 14.2945V11.8081C8.71512 12.0012 9.3455 12.106 10 12.106C10.6546 12.106 11.285 12.0012 11.8758 11.8081V14.2945C11.8758 14.6182 12.1383 14.8807 12.462 14.8807H13.7985L10 18.5941Z" fill="#FF0E15"/>
<path d="M9.94291 5.40393C9.33604 5.17966 9.23545 5.03326 9.23764 4.78515C9.24198 4.30127 9.72547 4.24996 9.93228 4.25215C10.2367 4.25348 10.7196 4.39662 10.7196 4.77499C10.7196 5.09872 10.9821 5.36118 11.3058 5.36118C11.6295 5.36118 11.892 5.09872 11.892 4.77499C11.892 3.91646 11.2733 3.36505 10.5496 3.16465V2.73658C10.5496 2.41285 10.2872 2.15039 9.96342 2.15039C9.63969 2.15039 9.37723 2.41285 9.37723 2.73658V3.148C9.12388 3.21213 8.89195 3.32034 8.69761 3.469C8.29458 3.7773 8.07003 4.24097 8.06527 4.77468C8.05448 5.98113 9.12951 6.36086 9.64618 6.54332" fill="#FF0E15"/>
<path d="M9.64638 6.54369C10.4606 6.82295 10.7651 6.99298 10.7623 7.30394C10.758 7.78356 10.2835 7.83702 10.0732 7.83702C10.0713 7.83702 10.0695 7.83702 10.0676 7.83698C9.76319 7.83565 9.28029 7.69246 9.28029 7.31414C9.28029 6.9904 9.01783 6.72795 8.6941 6.72795C8.37037 6.72795 8.10791 6.9904 8.10791 7.31414C8.10791 8.17271 8.72657 8.72412 9.45032 8.92447V9.37045C9.45032 9.69418 9.71278 9.95663 10.0365 9.95663C10.3602 9.95663 10.6227 9.69418 10.6227 9.37045V8.94155C10.876 8.87727 11.1081 8.76867 11.3023 8.62013C11.7053 8.31183 11.9299 7.84815 11.9347 7.31445C11.9456 6.09111 10.6558 5.64874 9.94311 5.4043" fill="#FF0E15"/>
</g>
<defs>
<clipPath id="clip0_2824_17383">
<rect width="20" height="20" fill="white"/>
</clipPath>
</defs>
</svg>
