<svg width="20" height="20" viewBox="0 0 20 20" fill="none" xmlns="http://www.w3.org/2000/svg">
<g clip-path="url(#clip0_2825_17394)">
<path d="M9.0333 11.6748C9.26213 11.9037 9.63311 11.9037 9.86193 11.6748L12.0717 9.46515C12.3071 9.22972 12.3003 8.84371 12.0512 8.61699C11.8178 8.40464 11.4544 8.42515 11.2313 8.64824L9.44764 10.4319L8.75709 9.74136C8.5283 9.51253 8.15729 9.51253 7.92846 9.74136C7.69963 9.97019 7.69963 10.3412 7.92846 10.57L9.0333 11.6748Z" fill="#34BE31"/>
<path d="M17.0625 12.6166C15.8046 13.7296 14.5253 14.8616 14.093 15.2441C14.096 15.2021 14.098 15.1599 14.098 15.1172C14.098 14.489 13.7666 13.9371 13.2696 13.6262C14.279 12.7161 14.8828 11.4078 14.8828 10C14.8828 9.13977 14.6582 8.30695 14.2383 7.57465C14.9757 7.40848 15.6587 7.03391 16.1935 6.49461L18.1894 4.48156C18.2945 4.37562 18.3594 4.22984 18.3594 4.06887L18.3582 0.585742C18.3581 0.262227 18.0958 0 17.7723 0H7.29266C6.45488 0 5.63641 0.281953 4.98336 0.798438L0.586484 4.74566C0.213203 5.08074 0 5.55871 0 6.06031C0 7.58281 1.79723 8.39234 2.93746 7.38344C4.19539 6.27035 5.47469 5.1384 5.90703 4.75594C5.90402 4.79789 5.90195 4.84012 5.90195 4.88281C5.90195 5.51098 6.2334 6.06293 6.73035 6.37383C5.72098 7.28387 5.11719 8.59219 5.11719 10C5.11719 10.8603 5.34211 11.693 5.76203 12.4253C5.02445 12.5914 4.34137 12.966 3.80648 13.5054L1.81055 15.5184C1.70551 15.6244 1.64055 15.7702 1.64059 15.9311L1.64172 19.4143C1.64184 19.7378 1.90414 20 2.22766 20H12.7073C13.545 20 14.3635 19.718 15.0166 19.2016L19.4134 15.2543C19.7867 14.9193 19.9999 14.4413 19.9999 13.9397C20 12.4171 18.2028 11.6076 17.0625 12.6166ZM6.64594 3.125C6.21781 3.125 5.80543 3.28121 5.48473 3.56488C5.48473 3.56488 3.78242 5.07086 2.16059 6.50586C1.77676 6.84547 1.17188 6.57289 1.17188 6.06035C1.17188 5.89148 1.24348 5.73074 1.36918 5.61793C2.88812 4.25453 5.59941 1.82035 5.59941 1.82035C6.06523 1.40219 6.66656 1.17188 7.29266 1.17188H17.1865L17.1874 3.82789L15.3613 5.66949C14.4255 6.61328 12.9815 6.77574 11.8582 6.06059C11.2359 5.66434 10.5068 5.46875 9.76898 5.46875H7.67676C7.36164 5.46875 7.09008 5.22707 7.07453 4.91234C7.05793 4.5759 7.32688 4.29688 7.65973 4.29688H11.6758C11.9913 4.29688 12.2628 4.05441 12.2776 3.73926C12.2934 3.40277 12.0253 3.125 11.6923 3.125H6.64594ZM8.42242 6.64062H9.76977C10.2966 6.64062 10.8112 6.7882 11.258 7.06738C11.7461 7.37242 12.2953 7.5657 12.8616 7.63863C13.4104 8.30266 13.7109 9.13289 13.7109 10C13.7109 11.4427 12.8773 12.7485 11.5776 13.3594H10.2302C9.70344 13.3594 9.18883 13.2118 8.74203 12.9326C8.25395 12.6276 7.70473 12.4343 7.13836 12.3614C6.58957 11.6973 6.28906 10.8671 6.28906 10C6.28906 8.5573 7.1227 7.25148 8.42242 6.64062ZM18.6308 14.3821C17.1119 15.7455 14.4006 18.1796 14.4006 18.1796C13.9348 18.5978 13.3334 18.8281 12.7073 18.8281H2.81344L2.81258 16.1721L4.63863 14.3305C5.57449 13.3867 7.01844 13.2243 8.14172 13.9394C8.7641 14.3357 9.4932 14.5312 10.231 14.5312H12.3232C12.6384 14.5312 12.9099 14.7729 12.9255 15.0877C12.9421 15.4241 12.6731 15.7031 12.3403 15.7031H8.32422C8.00871 15.7031 7.73723 15.9456 7.72238 16.2607C7.70652 16.5972 7.97465 16.875 8.30766 16.875H13.3541C13.7822 16.875 14.1946 16.7188 14.5153 16.4351C14.5153 16.4351 16.2176 14.9291 17.8394 13.4941C18.2232 13.1545 18.8282 13.4271 18.8282 13.9396C18.8281 14.1085 18.7565 14.2693 18.6308 14.3821Z" fill="#34BE31"/>
</g>
<defs>
<clipPath id="clip0_2825_17394">
<rect width="20" height="20" fill="white"/>
</clipPath>
</defs>
</svg>
