<svg width="44" height="36" viewBox="0 0 44 36" fill="none" xmlns="http://www.w3.org/2000/svg">
<path d="M42.6459 29.18L25.8639 2.28053C25.4578 1.62272 24.8906 1.07948 24.2158 0.702268C23.5411 0.325054 22.7812 0.126359 22.0081 0.125007C21.2351 0.123655 20.4745 0.319691 19.7985 0.694543C19.1224 1.06939 18.5532 1.61065 18.1449 2.26703L1.33589 29.2115C0.945058 29.897 0.739594 30.6724 0.739746 31.4614C0.739899 32.2505 0.945662 33.0258 1.33676 33.7111C1.72785 34.3964 2.29077 34.9679 2.97003 35.3694C3.6493 35.7709 4.42145 35.9884 5.21039 36.0005H38.7894C39.5812 35.9879 40.356 35.7685 41.0369 35.364C41.7177 34.9595 42.281 34.384 42.6708 33.6947C43.0606 33.0053 43.2634 32.226 43.259 31.434C43.2546 30.6421 43.0433 29.8651 42.6459 29.18Z" fill="url(#paint0_linear_4678_6536)"/>
<path d="M20.6303 21.9369L20.2313 15.9729C20.1533 14.7729 19.7438 12.8334 20.6603 11.8584C21.3578 11.1084 23.0093 10.9794 23.5103 12.0189C23.9364 13.2404 24.0306 14.5531 23.7833 15.8229L23.2493 21.9624C23.2264 22.5403 23.0999 23.1093 22.8758 23.6424C22.7877 23.815 22.654 23.9601 22.4892 24.062C22.3245 24.164 22.135 24.219 21.9412 24.221C21.7475 24.223 21.5569 24.172 21.3901 24.0734C21.2233 23.9749 21.0866 23.8326 20.9948 23.6619C20.7837 23.1096 20.6607 22.5275 20.6303 21.9369ZM22.0118 30.1314C21.5388 30.1288 21.0846 29.946 20.7416 29.6203C20.3985 29.2946 20.1925 28.8504 20.1654 28.3782C20.1382 27.9059 20.292 27.4411 20.5955 27.0782C20.8989 26.7154 21.3293 26.4818 21.7988 26.4249C22.0511 26.3944 22.307 26.4159 22.5507 26.4881C22.7943 26.5603 23.0206 26.6816 23.2155 26.8447C23.4105 27.0077 23.5699 27.2089 23.6841 27.436C23.7982 27.663 23.8647 27.9111 23.8792 28.1648C23.8938 28.4185 23.8562 28.6725 23.7689 28.9111C23.6815 29.1497 23.5461 29.3679 23.3711 29.5522C23.1961 29.7365 22.9853 29.883 22.7515 29.9826C22.5177 30.0822 22.266 30.1329 22.0118 30.1314Z" fill="white"/>
<defs>
<linearGradient id="paint0_linear_4678_6536" x1="0.739931" y1="18.0628" x2="43.2604" y2="18.0628" gradientUnits="userSpaceOnUse">
<stop stop-color="#FFD3A0"/>
<stop offset="1" stop-color="#FF993A"/>
</linearGradient>
</defs>
</svg>
