<svg width="32" height="32" viewBox="0 0 32 32" fill="none" xmlns="http://www.w3.org/2000/svg">
<g clip-path="url(#clip0_2762_16097)">
<rect width="32" height="32" rx="4" fill="#FFBC53"/>
<path fill-rule="evenodd" clip-rule="evenodd" d="M22.0412 23.3729C21.8372 23.3729 21.7652 23.205 21.7652 23.025C20.9493 22.821 20.6374 21.6692 21.2013 21.6692C21.3573 21.6692 21.4773 21.7891 21.4773 21.9451C21.4773 22.677 22.6051 22.677 22.6051 21.9451C22.6051 21.6332 22.3532 21.3812 22.0412 21.3812C20.7214 21.3812 20.5054 19.4974 21.7652 19.1735C21.7652 18.7175 22.3172 18.7175 22.3172 19.1735C23.1331 19.3894 23.433 20.5413 22.8811 20.5413C22.7251 20.5413 22.6051 20.4213 22.6051 20.2653C22.6051 19.5214 21.4773 19.5214 21.4773 20.2653C21.4773 20.5653 21.7292 20.8173 22.0412 20.8173C23.349 20.8173 23.565 22.701 22.3172 23.025C22.3172 23.205 22.2452 23.3729 22.0412 23.3729ZM14.0742 24.4408H6.04721C5.89123 24.4408 5.77124 24.3208 5.77124 24.1648V10.1746C5.77124 10.0186 5.89123 9.89863 6.04721 9.89863H13.7862V6.983C13.7862 6.82702 13.9182 6.70703 14.0742 6.70703H22.0892C22.2452 6.70703 22.3772 6.82702 22.3772 6.983V16.9298C24.5249 17.0977 26.2287 18.9095 26.2287 21.1052C26.2287 23.4089 24.3449 25.2927 22.0412 25.2927C21.0933 25.2927 20.2174 24.9687 19.5215 24.4408H14.0742ZM6.32317 23.8769H13.7862V10.4626H6.32317V23.8769ZM22.1012 17.4697H22.0412C19.9055 17.4697 18.2617 19.3055 18.4177 21.3812C18.5736 23.253 20.1334 24.7288 22.0412 24.7288C24.045 24.7288 25.6648 23.097 25.6648 21.1052C25.6648 19.1255 24.069 17.5057 22.1012 17.4697ZM14.3502 23.8769H16.1619V21.0212C16.1619 20.4573 16.6179 20.0014 17.1698 20.0014H17.9977C18.1537 19.4614 18.3937 18.9695 18.7416 18.5256C18.6456 18.2976 18.6816 17.2057 18.6816 16.9058C18.6816 16.5578 18.9696 16.2818 19.3055 16.2818H20.3374C20.6854 16.2818 20.9613 16.5578 20.9613 16.9058V17.0497C21.2373 16.9777 21.5253 16.9298 21.8132 16.9178V7.27096H14.3502V23.8769ZM17.8897 20.5653H17.1818C16.9298 20.5653 16.7259 20.7693 16.7259 21.0212V23.8769H18.9096C18.0097 22.857 17.8057 21.8611 17.8897 20.5653ZM8.83086 14.4461H7.79899C7.46303 14.4461 7.17506 14.1701 7.17506 13.8341V12.4543C7.17506 12.1184 7.46303 11.8304 7.79899 11.8304H8.83086C9.17881 11.8304 9.45478 12.1184 9.45478 12.4543V13.8341C9.45478 14.1701 9.17881 14.4461 8.83086 14.4461ZM7.79899 12.3943C7.76299 12.3943 7.73899 12.4303 7.73899 12.4543V13.8341C7.73899 13.8581 7.77499 13.8941 7.79899 13.8941H8.83086C8.86685 13.8941 8.90285 13.8581 8.90285 13.8341V12.4543C8.90285 12.4183 8.86685 12.3943 8.83086 12.3943H7.79899ZM12.3224 14.4461H11.2906C10.9426 14.4461 10.6666 14.1701 10.6666 13.8341V12.4543C10.6666 12.1184 10.9426 11.8304 11.2906 11.8304H12.3224C12.6584 11.8304 12.9343 12.1184 12.9343 12.4543V13.8341C12.9463 14.1701 12.6584 14.4461 12.3224 14.4461ZM11.2906 12.3943C11.2546 12.3943 11.2186 12.4303 11.2186 12.4543V13.8341C11.2186 13.8581 11.2546 13.8941 11.2906 13.8941H12.3224C12.3464 13.8941 12.3824 13.8581 12.3824 13.8341V12.4543C12.3824 12.4183 12.3464 12.3943 12.3224 12.3943H11.2906ZM8.83086 18.4776H7.79899C7.46303 18.4776 7.17506 18.2016 7.17506 17.8536V16.4858C7.17506 16.1379 7.46303 15.8619 7.79899 15.8619H8.83086C9.17881 15.8619 9.45478 16.1379 9.45478 16.4858V17.8536C9.45478 18.2016 9.17881 18.4776 8.83086 18.4776ZM7.79899 16.4258C7.76299 16.4258 7.73899 16.4498 7.73899 16.4858V17.8536C7.73899 17.8896 7.77499 17.9136 7.79899 17.9136H8.83086C8.86685 17.9136 8.90285 17.8896 8.90285 17.8536V16.4858C8.90285 16.4498 8.86685 16.4258 8.83086 16.4258H7.79899ZM12.3224 18.4776H11.2906C10.9426 18.4776 10.6666 18.2016 10.6666 17.8536V16.4858C10.6666 16.1379 10.9426 15.8619 11.2906 15.8619H12.3224C12.6584 15.8619 12.9343 16.1379 12.9343 16.4858V17.8536C12.9463 18.2016 12.6584 18.4776 12.3224 18.4776ZM11.2906 16.4258C11.2546 16.4258 11.2186 16.4498 11.2186 16.4858V17.8536C11.2186 17.8896 11.2546 17.9136 11.2906 17.9136H12.3224C12.3464 17.9136 12.3824 17.8896 12.3824 17.8536V16.4858C12.3824 16.4498 12.3464 16.4258 12.3224 16.4258H11.2906ZM8.83086 22.5091H7.79899C7.46303 22.5091 7.17506 22.2211 7.17506 21.8851V20.5053C7.17506 20.1693 7.46303 19.8934 7.79899 19.8934H8.83086C9.17881 19.8934 9.45478 20.1693 9.45478 20.5053V21.8851C9.45478 22.2211 9.17881 22.5091 8.83086 22.5091ZM7.79899 20.4453C7.76299 20.4453 7.73899 20.4813 7.73899 20.5053V21.8851C7.73899 21.9091 7.77499 21.9451 7.79899 21.9451H8.83086C8.86685 21.9451 8.90285 21.9091 8.90285 21.8851V20.5053C8.90285 20.4693 8.86685 20.4453 8.83086 20.4453H7.79899ZM12.3224 22.5091H11.2906C10.9426 22.5091 10.6666 22.2211 10.6666 21.8851V20.5053C10.6666 20.1693 10.9426 19.8934 11.2906 19.8934H12.3224C12.6584 19.8934 12.9343 20.1693 12.9343 20.5053V21.8851C12.9463 22.2211 12.6584 22.5091 12.3224 22.5091ZM11.2906 20.4453C11.2546 20.4453 11.2186 20.4813 11.2186 20.5053V21.8851C11.2186 21.9091 11.2546 21.9451 11.2906 21.9451H12.3224C12.3464 21.9451 12.3824 21.9091 12.3824 21.8851V20.5053C12.3824 20.4693 12.3464 20.4453 12.3224 20.4453H11.2906ZM16.8579 10.8465H15.826C15.478 10.8465 15.2021 10.5585 15.2021 10.2226V8.85476C15.2021 8.50681 15.478 8.23084 15.826 8.23084H16.8579C17.2058 8.23084 17.4818 8.50681 17.4818 8.85476V10.2226C17.4818 10.5585 17.2058 10.8465 16.8579 10.8465ZM15.826 8.78277C15.79 8.78277 15.766 8.81877 15.766 8.85476V10.2226C15.766 10.2586 15.79 10.2826 15.826 10.2826H16.8579C16.8938 10.2826 16.9178 10.2466 16.9178 10.2226V8.85476C16.9178 8.81877 16.8938 8.78277 16.8579 8.78277H15.826ZM20.3374 10.8465H19.3055C18.9696 10.8465 18.6936 10.5585 18.6936 10.2226V8.85476C18.6936 8.50681 18.9696 8.23084 19.3055 8.23084H20.3374C20.6854 8.23084 20.9613 8.50681 20.9613 8.85476V10.2226C20.9613 10.5585 20.6854 10.8465 20.3374 10.8465ZM19.3055 8.78277C19.2816 8.78277 19.2456 8.81877 19.2456 8.85476V10.2226C19.2456 10.2586 19.2816 10.2826 19.3055 10.2826H20.3374C20.3734 10.2826 20.4094 10.2466 20.4094 10.2226V8.85476C20.4094 8.81877 20.3734 8.78277 20.3374 8.78277H19.3055ZM16.8579 14.866H15.826C15.478 14.866 15.2021 14.59 15.2021 14.2421V12.8743C15.2021 12.5383 15.478 12.2503 15.826 12.2503H16.8579C17.2058 12.2503 17.4818 12.5383 17.4818 12.8743V14.2421C17.4818 14.59 17.2058 14.866 16.8579 14.866ZM15.826 12.8143C15.79 12.8143 15.766 12.8383 15.766 12.8743V14.2421C15.766 14.2781 15.79 14.3021 15.826 14.3021L16.8579 14.3141C16.8938 14.3141 16.9178 14.2781 16.9178 14.2421V12.8743C16.9178 12.8383 16.8938 12.8143 16.8579 12.8143H15.826ZM20.3374 14.866H19.3055C18.9696 14.866 18.6936 14.59 18.6936 14.2421V12.8743C18.6936 12.5383 18.9696 12.2503 19.3055 12.2503H20.3374C20.6854 12.2503 20.9613 12.5383 20.9613 12.8743V14.2421C20.9613 14.59 20.6854 14.866 20.3374 14.866ZM19.3055 12.8143C19.2816 12.8143 19.2456 12.8383 19.2456 12.8743V14.2421C19.2456 14.2781 19.2816 14.3021 19.3055 14.3021L20.3374 14.3141C20.3734 14.3141 20.4094 14.2781 20.4094 14.2421V12.8743C20.4094 12.8383 20.3734 12.8143 20.3374 12.8143H19.3055ZM16.8579 18.8975H15.826C15.478 18.8975 15.2021 18.6095 15.2021 18.2736V16.9058C15.2021 16.5578 15.478 16.2818 15.826 16.2818H16.8579C17.2058 16.2818 17.4818 16.5578 17.4818 16.9058V18.2736C17.4818 18.6095 17.2058 18.8975 16.8579 18.8975ZM15.826 16.8338C15.79 16.8338 15.766 16.8698 15.766 16.9058V18.2736C15.766 18.3096 15.79 18.3336 15.826 18.3336H16.8579C16.8938 18.3336 16.9178 18.3096 16.9178 18.2736V16.9058C16.9178 16.8698 16.8938 16.8338 16.8579 16.8338H15.826ZM19.3055 16.8338C19.2816 16.8338 19.2456 16.8698 19.2456 16.9058V17.9856C19.5935 17.6737 19.9895 17.4217 20.4094 17.2417C20.4094 17.1697 20.4574 16.8338 20.3374 16.8338H19.3055Z" fill="white"/>
</g>
<defs>
<clipPath id="clip0_2762_16097">
<rect width="32" height="32" rx="8" fill="white"/>
</clipPath>
</defs>
</svg>
