<svg width="150" height="150" viewBox="0 0 150 150" fill="none" xmlns="http://www.w3.org/2000/svg">
<g clip-path="url(#clip0_759_4314)">
<path d="M14.4249 126.362L13.1038 121.167C10.7615 120.178 8.36506 119.32 5.92591 118.6L5.75916 121.014L5.08291 118.354C2.05793 117.492 0 117.113 0 117.113C0 117.113 2.77909 127.652 8.60994 135.709L15.4034 136.898L10.1258 137.657C10.8592 138.537 11.6474 139.37 12.4858 140.151C20.967 148 30.4137 151.601 33.5853 148.195C36.7569 144.788 32.4525 135.663 23.9713 127.815C21.342 125.382 18.0391 123.429 14.7328 121.892L14.4249 126.362Z" fill="#FFBC53"/>
<path d="M26.9884 120.719L28.5508 115.592C27.0589 113.538 25.452 111.569 23.7377 109.695L22.3433 111.675L23.1432 109.05C21.0003 106.754 19.4354 105.369 19.4354 105.369C19.4354 105.369 16.3512 115.823 17.1648 125.725L22.3635 130.244L17.4513 128.174C17.6232 129.305 17.8663 130.425 18.1791 131.526C21.3702 142.616 27.59 150.567 32.0712 149.285C36.5523 148.003 37.5983 137.974 34.4072 126.884C33.418 123.446 31.6027 120.072 29.5694 117.053L26.9884 120.719Z" fill="#FFBC53"/>
<path d="M104.669 35.5351H103.845V13.0274C103.845 11.3166 103.507 9.62257 102.85 8.04201C102.194 6.46146 101.231 5.02533 100.018 3.81563C98.8047 2.60593 97.3643 1.64634 95.779 0.991649C94.1937 0.336962 92.4947 0 90.7788 0H42.9488C39.4834 0 36.1599 1.37252 33.7095 3.81563C31.2591 6.25874 29.8824 9.5723 29.8824 13.0274V136.509C29.8824 138.219 30.2204 139.913 30.8771 141.494C31.5337 143.075 32.4962 144.511 33.7095 145.72C34.9228 146.93 36.3632 147.89 37.9485 148.544C39.5338 149.199 41.2329 149.536 42.9488 149.536H90.7788C94.2441 149.536 97.5676 148.163 100.018 145.72C102.468 143.277 103.845 139.964 103.845 136.509V51.5565H104.669L104.669 35.5351Z" fill="#3F3D56"/>
<path d="M91.306 3.38806H85.0631C85.3502 4.08992 85.4598 4.8514 85.3822 5.60543C85.3046 6.35947 85.0422 7.0829 84.6181 7.71199C84.194 8.34109 83.6212 8.85654 82.9502 9.21293C82.2793 9.56932 81.5307 9.75571 80.7704 9.75568H53.3692C52.6089 9.75564 51.8604 9.5692 51.1895 9.21278C50.5185 8.85637 49.9458 8.34091 49.5218 7.71183C49.0977 7.08274 48.8353 6.35933 48.7578 5.60533C48.6802 4.85134 48.7898 4.08988 49.0769 3.38806H43.2456C40.6577 3.38806 38.1757 4.41305 36.3458 6.23754C34.5159 8.06203 33.4878 10.5366 33.4878 13.1168V136.419C33.4878 138.999 34.5159 141.473 36.3458 143.298C38.1757 145.122 40.6577 146.147 43.2456 146.147H91.306C93.8939 146.147 96.3759 145.122 98.2058 143.298C100.036 141.473 101.064 138.999 101.064 136.419V13.1166C101.064 10.5364 100.036 8.06191 98.2057 6.23746C96.3758 4.41302 93.8939 3.38806 91.306 3.38806Z" fill="white"/>
<path d="M61.1517 52.5053C61.1515 51.6434 61.3791 50.7967 61.8114 50.0504C62.2438 49.304 62.8657 48.6844 63.6146 48.2539C62.8661 47.8229 62.017 47.5959 61.1526 47.5958C60.2882 47.5957 59.439 47.8225 58.6904 48.2533C57.9418 48.6842 57.3202 49.3039 56.888 50.0502C56.4558 50.7966 56.2282 51.6432 56.2282 52.505C56.2282 53.3668 56.4558 54.2134 56.888 54.9597C57.3202 55.706 57.9418 56.3257 58.6904 56.7566C59.439 57.1874 60.2882 57.4142 61.1526 57.4141C62.017 57.414 62.8661 57.187 63.6146 56.756C62.8658 56.3256 62.2439 55.7061 61.8115 54.9599C61.3791 54.2136 61.1516 53.367 61.1517 52.5053Z" fill="#FFBC53"/>
<path d="M67.3416 52.5053C67.3414 51.6434 67.569 50.7967 68.0013 50.0503C68.4337 49.304 69.0556 48.6844 69.8045 48.2539C69.056 47.8229 68.2069 47.5959 67.3425 47.5958C66.4782 47.5957 65.629 47.8225 64.8804 48.2533C64.1318 48.6842 63.5101 49.3039 63.0779 50.0502C62.6457 50.7966 62.4182 51.6432 62.4182 52.505C62.4182 53.3668 62.6457 54.2134 63.0779 54.9597C63.5101 55.706 64.1318 56.3257 64.8804 56.7566C65.629 57.1874 66.4782 57.4142 67.3425 57.4141C68.2069 57.414 69.056 57.187 69.8045 56.756C69.0557 56.3256 68.4338 55.7061 68.0014 54.9599C67.5691 54.2136 67.3415 53.367 67.3416 52.5053Z" fill="#FFBC53"/>
<path d="M73.391 57.4142C76.1103 57.4142 78.3148 55.2163 78.3148 52.5051C78.3148 49.7938 76.1103 47.5959 73.391 47.5959C70.6716 47.5959 68.4672 49.7938 68.4672 52.5051C68.4672 55.2163 70.6716 57.4142 73.391 57.4142Z" fill="#1070FF" fill-opacity="0.8"/>
<path d="M81.6199 67.8382H52.9228C52.6496 67.8379 52.3876 67.7295 52.1944 67.5369C52.0013 67.3443 51.8926 67.0832 51.8923 66.8108V38.1993C51.8926 37.9269 52.0013 37.6658 52.1944 37.4731C52.3876 37.2805 52.6496 37.1722 52.9228 37.1719H81.6199C81.8931 37.1722 82.155 37.2805 82.3482 37.4731C82.5414 37.6658 82.65 37.9269 82.6504 38.1993V66.8108C82.65 67.0832 82.5414 67.3443 82.3482 67.5369C82.155 67.7295 81.8931 67.8379 81.6199 67.8382ZM52.9228 37.5831C52.7588 37.5832 52.6017 37.6482 52.4858 37.7638C52.3699 37.8794 52.3047 38.0361 52.3045 38.1995V66.811C52.3047 66.9744 52.3699 67.1311 52.4858 67.2467C52.6017 67.3622 52.7588 67.4272 52.9228 67.4274H81.6199C81.7838 67.4272 81.941 67.3622 82.0569 67.2467C82.1728 67.1311 82.238 66.9744 82.2381 66.811V38.1995C82.238 38.0361 82.1728 37.8794 82.0569 37.7638C81.941 37.6482 81.7838 37.5832 81.6199 37.5831H52.9228Z" fill="#FFBC53"/>
<path d="M88.0275 89.7703H44.0148V90.1813H88.0275V89.7703Z" fill="#CCCCCC"/>
<path d="M45.4047 87.2042C46.1724 87.2042 46.7947 86.5838 46.7947 85.8184C46.7947 85.0531 46.1724 84.4326 45.4047 84.4326C44.6371 84.4326 44.0148 85.0531 44.0148 85.8184C44.0148 86.5838 44.6371 87.2042 45.4047 87.2042Z" fill="#1070FF" fill-opacity="0.8"/>
<path d="M88.0275 103.627H44.0148V104.038H88.0275V103.627Z" fill="#CCCCCC"/>
<path d="M45.4047 101.062C46.1724 101.062 46.7947 100.441 46.7947 99.6758C46.7947 98.9105 46.1724 98.29 45.4047 98.29C44.6371 98.29 44.0148 98.9105 44.0148 99.6758C44.0148 100.441 44.6371 101.062 45.4047 101.062Z" fill="#1070FF" fill-opacity="0.8"/>
<path d="M87.2221 119.407H73.3128C73.0726 119.407 72.8422 119.312 72.6723 119.143C72.5024 118.973 72.4069 118.743 72.4066 118.504V113.643C72.4069 113.404 72.5024 113.174 72.6723 113.005C72.8422 112.835 73.0726 112.74 73.3128 112.74H87.2221C87.4623 112.74 87.6927 112.835 87.8626 113.005C88.0325 113.174 88.128 113.404 88.1283 113.643V118.504C88.128 118.743 88.0325 118.973 87.8626 119.143C87.6927 119.312 87.4623 119.407 87.2221 119.407Z" fill="#1070FF" fill-opacity="0.8"/>
<path d="M49.9387 87.2042C50.7063 87.2042 51.3286 86.5838 51.3286 85.8184C51.3286 85.0531 50.7063 84.4326 49.9387 84.4326C49.171 84.4326 48.5487 85.0531 48.5487 85.8184C48.5487 86.5838 49.171 87.2042 49.9387 87.2042Z" fill="#1070FF" fill-opacity="0.8"/>
<path d="M54.4726 87.2042C55.2402 87.2042 55.8625 86.5838 55.8625 85.8184C55.8625 85.0531 55.2402 84.4326 54.4726 84.4326C53.7049 84.4326 53.0826 85.0531 53.0826 85.8184C53.0826 86.5838 53.7049 87.2042 54.4726 87.2042Z" fill="#1070FF" fill-opacity="0.8"/>
<path d="M49.9387 101.062C50.7063 101.062 51.3286 100.441 51.3286 99.6758C51.3286 98.9105 50.7063 98.29 49.9387 98.29C49.171 98.29 48.5487 98.9105 48.5487 99.6758C48.5487 100.441 49.171 101.062 49.9387 101.062Z" fill="#1070FF" fill-opacity="0.8"/>
<path d="M54.4726 101.062C55.2402 101.062 55.8625 100.441 55.8625 99.6758C55.8625 98.9105 55.2402 98.29 54.4726 98.29C53.7049 98.29 53.0826 98.9105 53.0826 99.6758C53.0826 100.441 53.7049 101.062 54.4726 101.062Z" fill="#1070FF" fill-opacity="0.8"/>
<path d="M149.44 150H4.84931C4.53979 150 4.28906 149.89 4.28906 149.755C4.28906 149.621 4.53979 149.511 4.84931 149.511H149.44C149.749 149.511 150 149.62 150 149.755C150 149.891 149.749 150 149.44 150Z" fill="#3F3D56"/>
<path d="M113.716 98.2753C113.815 98.3203 113.91 98.3732 114.001 98.4333L123.033 94.5897L123.355 92.2174L126.965 92.1954L126.751 97.6363L114.829 100.78C114.804 100.862 114.774 100.943 114.739 101.022C114.567 101.389 114.29 101.697 113.943 101.907C113.595 102.117 113.194 102.22 112.788 102.203C112.382 102.187 111.99 102.051 111.662 101.813C111.333 101.575 111.082 101.245 110.941 100.866C110.8 100.486 110.774 100.073 110.867 99.6789C110.96 99.2847 111.168 98.9268 111.465 98.65C111.761 98.3733 112.133 98.1901 112.534 98.1234C112.934 98.0567 113.346 98.1096 113.716 98.2753Z" fill="#FFB8B8"/>
<path d="M128.277 147.579H125.808L124.634 138.085L128.278 138.085L128.277 147.579Z" fill="#FFB8B8"/>
<path d="M124.045 146.876H128.806V149.865H121.047C121.047 149.072 121.363 148.312 121.925 147.751C122.487 147.191 123.25 146.876 124.045 146.876Z" fill="#2F2E41"/>
<path d="M137.879 146.884L135.422 147.125L133.319 137.791L136.946 137.435L137.879 146.884Z" fill="#FFB8B8"/>
<path d="M133.598 146.598L138.337 146.132L138.63 149.107L130.908 149.865C130.87 149.475 130.909 149.08 131.023 148.704C131.137 148.329 131.325 147.979 131.574 147.676C131.824 147.373 132.131 147.121 132.479 146.936C132.826 146.751 133.206 146.636 133.598 146.598Z" fill="#2F2E41"/>
<path d="M128.964 82.1471C131.696 82.1471 133.911 79.9393 133.911 77.2157C133.911 74.4922 131.696 72.2843 128.964 72.2843C126.233 72.2843 124.018 74.4922 124.018 77.2157C124.018 79.9393 126.233 82.1471 128.964 82.1471Z" fill="#FFB8B8"/>
<path d="M125.256 145.659C125.044 145.66 124.839 145.586 124.676 145.45C124.513 145.314 124.404 145.125 124.367 144.917C123.089 137.844 118.912 114.718 118.812 114.078C118.81 114.063 118.809 114.048 118.809 114.033V112.309C118.809 112.246 118.829 112.185 118.866 112.134L119.417 111.363C119.444 111.326 119.478 111.296 119.518 111.274C119.558 111.252 119.602 111.24 119.648 111.238C122.794 111.091 133.097 110.66 133.595 111.28C134.095 111.903 133.918 113.791 133.877 114.163L133.879 114.202L138.508 143.716C138.544 143.951 138.486 144.191 138.346 144.384C138.206 144.577 137.996 144.707 137.76 144.747L134.869 145.222C134.654 145.256 134.433 145.212 134.247 145.098C134.062 144.985 133.923 144.808 133.857 144.601C132.963 141.752 129.964 132.169 128.925 128.46C128.919 128.437 128.904 128.417 128.883 128.403C128.863 128.39 128.838 128.384 128.814 128.388C128.79 128.391 128.768 128.403 128.752 128.422C128.736 128.44 128.728 128.464 128.728 128.488C128.78 132.023 128.905 141.042 128.948 144.157L128.953 144.492C128.955 144.719 128.871 144.939 128.719 145.108C128.566 145.276 128.356 145.382 128.129 145.403L125.341 145.656C125.313 145.658 125.284 145.659 125.256 145.659Z" fill="#2F2E41"/>
<path d="M125.825 84.0862C124.962 84.5978 124.446 85.5379 124.149 86.4946C123.601 88.2657 123.27 90.0969 123.166 91.9477L122.852 97.4894L118.975 112.181C122.336 115.016 124.274 114.371 128.798 112.052C133.322 109.733 133.839 112.826 133.839 112.826L134.744 100.325L136.037 86.6655C135.747 86.3172 135.418 86.0024 135.058 85.727C133.863 84.8008 132.473 84.157 130.992 83.8441C129.512 83.5313 127.979 83.5575 126.51 83.9209L125.825 84.0862Z" fill="#1070FF"/>
<path d="M124.566 101.242C124.67 101.282 124.771 101.329 124.868 101.384L133.799 96.9269L133.947 94.5124L137.631 94.2592L137.829 99.7631L125.894 103.698C125.796 104.115 125.574 104.492 125.256 104.78C124.938 105.068 124.54 105.252 124.115 105.309C123.689 105.365 123.257 105.291 122.874 105.097C122.492 104.902 122.178 104.596 121.975 104.22C121.771 103.843 121.687 103.413 121.734 102.988C121.781 102.563 121.957 102.162 122.239 101.839C122.52 101.515 122.893 101.285 123.309 101.179C123.725 101.072 124.163 101.094 124.566 101.242Z" fill="#FFB8B8"/>
<path d="M135.972 86.7281C138.169 87.5013 138.556 95.8785 138.556 95.8785C135.971 94.4609 132.869 96.7806 132.869 96.7806C132.869 96.7806 132.223 94.5898 131.447 91.7546C131.213 90.9571 131.185 90.1135 131.366 89.3024C131.547 88.4912 131.93 87.7388 132.481 87.1153C132.481 87.1153 133.775 85.9544 135.972 86.7281Z" fill="#1070FF"/>
<path d="M133.399 78.5198C132.783 78.0282 131.942 78.9217 131.942 78.9217L131.449 74.4978C131.449 74.4978 128.368 74.8658 126.396 74.375C124.424 73.8842 124.116 76.157 124.116 76.157C124.014 75.2389 123.993 74.3137 124.054 73.392C124.177 72.286 125.78 71.18 128.614 70.4426C131.449 69.7052 132.928 72.9004 132.928 72.9004C134.901 73.8834 134.016 79.0114 133.399 78.5198Z" fill="#2F2E41"/>
</g>
<defs>
<clipPath id="clip0_759_4314">
<rect width="150" height="150" fill="white"/>
</clipPath>
</defs>
</svg>
